HIERARCHY
ROOT Hips
{
	OFFSET -3.958830 18.904000 13.208200
	CHANNELS 6 Xposition Yposition Zposition Zrotation Yrotation Xrotation 
	JOINT LHipJoint
	{
		OFFSET 0.000000 0.000000 0.000000
		CHANNELS 3 Zrotation Yrotation Xrotation
		JOINT LeftUpLeg
		{
			OFFSET 1.800000 -1.400000 0.085000
			CHANNELS 3 Zrotation Yrotation Xrotation
			JOINT LeftLeg
			{
				OFFSET 2.215000 -6.000000 0.000000
				CHANNELS 3 Zrotation Yrotation Xrotation
				JOINT LeftFoot
				{
					OFFSET 2.500000 -6.900000 0.000000
					CHANNELS 3 Zrotation Yrotation Xrotation
					JOINT LeftToeBase
					{
						OFFSET 0.200000 -0.500000 1.950000
						CHANNELS 3 Zrotation Yrotation Xrotation
						End Site
						{
							OFFSET 0.000000 0.000000 0.000000
						}
					}
				}
			}
		}
	}
	JOINT RHipJoint
	{
		OFFSET 0.000000 0.000000 0.000000
		CHANNELS 3 Zrotation Yrotation Xrotation
		JOINT RightUpLeg
		{
			OFFSET -1.800000 -1.400000 0.085000
			CHANNELS 3 Zrotation Yrotation Xrotation
			JOINT RightLeg
			{
				OFFSET -2.215000 -6.000000 0.000000
				CHANNELS 3 Zrotation Yrotation Xrotation
				JOINT RightFoot
				{
					OFFSET -2.500000 -6.900000 0.000000
					CHANNELS 3 Zrotation Yrotation Xrotation
					JOINT RightToeBase
					{
						OFFSET -0.200000 -0.500000 1.950000
						CHANNELS 3 Zrotation Yrotation Xrotation
						End Site
						{
							OFFSET 0.000000 0.000000 0.000000
						}
					}
				}
			}
		}
	}
	JOINT LowerBack
	{
		OFFSET 0.000000 0.000000 0.000000
		CHANNELS 3 Zrotation Yrotation Xrotation
		JOINT Spine
		{
			OFFSET -0.087000 1.940000 -0.288900
			CHANNELS 3 Zrotation Yrotation Xrotation
			JOINT Spine1
			{
				OFFSET 0.000000 1.950000 0.060000
				CHANNELS 3 Zrotation Yrotation Xrotation
				JOINT Neck
				{
					OFFSET 0.000000 0.000000 0.000000
					CHANNELS 3 Zrotation Yrotation Xrotation
					JOINT Neck1
					{
						OFFSET 0.000000 1.600000 0.340000
						CHANNELS 3 Zrotation Yrotation Xrotation
						JOINT Head
						{
							OFFSET 0.000000 1.667000 -0.240000
							CHANNELS 3 Zrotation Yrotation Xrotation
							End Site
							{
								OFFSET 0.000000 0.000000 0.000000
							}
						}
					}
				}
				JOINT LeftShoulder
				{
					OFFSET 0.000000 0.000000 0.000000
					CHANNELS 3 Zrotation Yrotation Xrotation
					JOINT LeftArm
					{
						OFFSET 2.700000 1.550000 -0.730000
						CHANNELS 3 Zrotation Yrotation Xrotation
						JOINT LeftForeArm
						{
							OFFSET 5.450000 0.000000 0.000000
							CHANNELS 3 Zrotation Yrotation Xrotation
							JOINT LeftHand
							{
								OFFSET 3.450000 0.000000 0.000000
								CHANNELS 3 Zrotation Yrotation Xrotation
								JOINT LeftHandIndex1
								{
									OFFSET 0.750000 0.000000 0.000000
									CHANNELS 3 Zrotation Yrotation Xrotation
									End Site
									{
										OFFSET 0.000000 0.000000 0.000000
									}
								}
							}
						}
					}
				}
				JOINT RightShoulder
				{
					OFFSET 0.000000 0.000000 0.000000
					CHANNELS 3 Zrotation Yrotation Xrotation
					JOINT RightArm
					{
						OFFSET -2.700000 1.550000 -0.730000
						CHANNELS 3 Zrotation Yrotation Xrotation
						JOINT RightForeArm
						{
							OFFSET -5.450000 0.000000 0.000000
							CHANNELS 3 Zrotation Yrotation Xrotation
							JOINT RightHand
							{
								OFFSET -3.450000 0.000000 0.000000
								CHANNELS 3 Zrotation Yrotation Xrotation
								JOINT RightHandIndex1
								{
									OFFSET -0.750000 0.000000 0.000000
									CHANNELS 3 Zrotation Yrotation Xrotation
									End Site
									{
										OFFSET 0.000000 0.000000 0.000000
									}
								}
							}
						}
					}
				}
			}
		}
	}
}
MOTION
Frames: 9
Frame Time: 0.016667
1.207590 16.891120 -3.261050 -2.777720 -0.374738 1.709564 -14.896624 13.084491 2.962876 3.618607 -2.924007 -21.420643 -2.492901 7.038386 28.787448 -0.149043 4.797282 2.786501 0.290320 0.183820 0.239000 18.375607 -11.874892 2.486010 -9.851936 0.847314 -14.162084 7.169908 -6.819801 22.003175 -0.196762 -4.127596 2.903994 0.163010 0.035100 0.085960 -4.118761 0.188412 -7.121689 8.348530 2.644357 8.790580 -7.386021 3.624647 10.405730 3.732623 -0.120500 -11.044303 -1.350055 -0.263074 36.365881 -2.213040 -1.117350 -6.911880 -8.368845 -8.115263 4.422279 -42.955626 -6.349741 -2.264704 -50.411942 -34.619191 13.340287 -3.636707 3.355650 0.196280 0.049990 0.015600 0.077170 1.064608 10.440846 7.666006 47.754960 13.415824 2.691329 119.825487 56.183215 68.570136 2.440228 -1.874101 -0.063920 0.118190 -0.064540 -0.112770 
1.218720 16.900200 -3.260030 -2.769230 -0.171735 1.824544 -14.897100 13.085318 2.955303 3.553729 -2.898534 -21.241972 -2.630299 6.962708 28.184203 -0.160312 4.711403 2.819518 0.284350 0.175350 0.235070 18.374573 -11.870401 2.491687 -9.913189 0.835571 -14.198587 7.270814 -6.817614 21.802429 -0.192190 -4.114789 2.908864 0.157810 0.035690 0.085490 -4.120830 0.180846 -7.117882 8.329592 2.635758 8.663743 -7.488725 3.632299 10.401824 3.731733 -0.085349 -11.103171 -1.313379 -0.363854 36.334373 -2.163740 -1.155830 -6.767800 -8.353092 -8.228274 4.450948 -43.057467 -6.448982 -2.268324 -50.169759 -34.735275 13.315860 -3.637401 3.355639 0.196290 0.050230 0.012930 0.075150 1.040865 10.503801 7.764684 48.082022 13.114689 2.509007 118.491632 56.233459 67.090370 2.448896 -1.877445 -0.065160 0.115260 -0.061510 -0.113650 
1.242420 16.913080 -3.256530 -2.730447 0.322190 2.098911 -14.900350 13.079974 2.948978 3.328049 -2.895778 -20.990572 -2.816402 6.794784 27.132707 -0.178859 4.557131 2.883663 0.272040 0.159050 0.223570 18.372322 -11.856436 2.498723 -10.089302 0.822957 -14.390555 7.477801 -6.832529 21.513673 -0.182469 -4.099576 2.914235 0.148670 0.044170 0.086040 -4.123835 0.163172 -7.109663 8.291479 2.577940 8.409244 -7.712560 3.608018 10.350246 3.724073 -0.012137 -11.197823 -1.205506 -0.610760 35.949557 -2.006310 -1.301940 -6.474770 -8.301815 -8.421791 4.476657 -43.271188 -6.689843 -2.241912 -49.728225 -34.782887 13.198189 -3.641792 3.356941 0.193100 0.054530 0.004950 0.075460 0.976632 10.587690 7.960985 48.704651 12.442446 2.158821 116.105354 56.187765 64.353806 2.458675 -1.895328 -0.068640 0.111810 -0.056300 -0.111600 
1.274310 16.927690 -3.253270 -2.686209 0.854365 2.395813 -14.904520 13.077069 2.949586 3.092204 -2.897852 -20.699972 -3.078606 6.639503 26.008223 -0.195848 4.401856 2.948133 0.262040 0.142430 0.218710 18.367248 -11.839650 2.504919 -10.392277 0.822259 -14.681445 7.735385 -6.894277 21.379184 -0.177073 -4.096032 2.913306 0.137060 0.046020 0.086410 -4.122483 0.132330 -7.112953 8.262124 2.492799 8.234049 -7.975422 3.579536 10.256854 3.727449 0.072422 -11.347435 -1.112632 -0.995058 35.637398 -1.920380 -1.522830 -6.303580 -8.285432 -8.758201 4.529108 -43.503407 -6.965550 -2.239958 -49.310607 -34.665640 12.990962 -3.641322 3.353180 0.195910 0.053590 0.002280 0.074370 0.915255 10.810416 8.229329 49.390801 11.574247 1.596009 113.028469 56.088071 60.900562 2.470372 -1.913693 -0.071140 0.107510 -0.053940 -0.112090 
1.311650 16.941570 -3.252310 -2.666697 1.730631 2.681539 -14.910915 13.075700 2.959100 2.854911 -2.941564 -20.535756 -3.241593 6.447930 24.943693 -0.210308 4.243261 3.011487 0.252810 0.127370 0.214230 18.359234 -11.811136 2.516032 -10.793781 0.835883 -15.048891 8.214142 -7.072250 21.469068 -0.178628 -4.128447 2.897757 0.123900 0.044620 0.086810 -4.121756 0.073690 -7.135108 8.302193 2.306673 8.223389 -8.277759 3.476390 10.064429 3.720279 0.161736 -11.496628 -1.040972 -1.448742 35.358953 -1.763950 -1.821770 -6.214990 -8.485819 -9.218774 4.592421 -43.487199 -7.200270 -2.287035 -48.739887 -34.525445 12.721549 -3.639295 3.347466 0.199320 0.049520 0.002250 0.072490 1.072395 11.124244 8.491693 49.817272 10.533130 0.858848 109.170422 55.752830 56.641092 2.478058 -1.938373 -0.070400 0.102170 -0.051870 -0.111870 
1.356350 16.953270 -3.255140 -2.681748 2.685098 2.895966 -14.914865 13.073785 2.979067 2.564917 -3.022499 -20.455941 -3.322152 6.275353 24.153307 -0.222397 4.118603 3.060102 0.241600 0.110440 0.212520 18.353066 -11.784924 2.526125 -11.192166 0.869482 -15.538906 8.636374 -7.294904 21.878777 -0.181245 -4.180572 2.873392 0.110480 0.041140 0.084490 -4.129745 0.015237 -7.170584 8.498204 2.084706 8.374108 -8.632962 3.360921 9.804607 3.746593 0.268011 -11.609482 -0.959125 -1.910782 35.239432 -1.672450 -2.104810 -6.163110 -8.893136 -9.745481 4.610981 -43.411354 -7.573791 -2.284285 -47.980651 -34.166066 12.310679 -3.641360 3.332233 0.203730 0.044640 0.002520 0.066230 1.355734 11.475760 8.724862 50.126366 9.508417 0.023003 104.691208 55.279985 51.982537 2.479555 -1.957555 -0.071430 0.099450 -0.047530 -0.114170 
1.403980 16.963680 -3.260880 -2.673912 3.645934 3.080311 -14.918092 13.068070 3.009350 2.242456 -3.122443 -20.384720 -3.495591 6.147614 23.441632 -0.236037 4.018172 3.099376 0.228220 0.090560 0.211460 18.347423 -11.762451 2.532903 -11.617446 0.931352 -16.263249 8.915457 -7.556049 22.692032 -0.185711 -4.256055 2.836796 0.096320 0.036880 0.082690 -4.139785 -0.035575 -7.215903 8.712417 1.827175 8.645725 -9.099175 3.234485 9.477290 3.816766 0.487770 -11.703992 -0.677550 -2.470882 35.148179 -1.688350 -2.368600 -6.145710 -9.547352 -10.366822 4.619035 -43.098484 -7.910796 -2.304504 -47.185846 -33.775015 11.887113 -3.646057 3.312237 0.211680 0.040610 0.003050 0.057070 1.781547 11.827713 8.945528 50.533130 8.442513 -0.938696 99.602578 54.673628 47.052993 2.470974 -1.970672 -0.075050 0.096850 -0.040590 -0.119380 
1.453260 16.974570 -3.267090 -2.789760 4.629207 3.160322 -14.912938 13.060433 3.030667 2.055135 -3.207297 -20.298328 -3.634481 6.048143 22.917543 -0.245785 3.946363 3.125496 0.218540 0.072440 0.213530 18.349347 -11.736476 2.558629 -12.030739 1.021217 -17.046486 9.432584 -7.953455 23.731722 -0.202838 -4.382033 2.779968 0.082000 0.027810 0.082920 -4.174152 -0.075886 -7.277938 9.199458 1.527941 9.021976 -9.631406 3.092098 9.083935 3.892833 0.725214 -11.792927 -0.410007 -3.086982 35.343932 -1.675780 -2.734460 -6.136860 -10.364603 -11.098523 4.638402 -42.696836 -8.270085 -2.308235 -46.463039 -33.253681 11.441087 -3.646740 3.293066 0.223530 0.032630 0.007920 0.048450 2.338381 12.254063 9.142803 50.897177 7.388035 -1.994869 94.060233 53.510089 41.743583 2.450419 -1.982658 -0.076220 0.092090 -0.035300 -0.125350 
1.505140 16.986650 -3.275420 -2.960693 5.557939 3.129300 -14.903019 13.056087 3.049471 1.962310 -3.271383 -20.165320 -3.820435 5.988043 22.485327 -0.253713 3.888488 3.141233 0.214890 0.065850 0.225300 18.355070 -11.714875 2.591219 -12.376077 1.147940 -18.002426 9.811585 -8.412177 25.225184 -0.230906 -4.544673 2.707755 0.072260 0.006840 0.079820 -4.219902 -0.107973 -7.352520 9.855780 1.209706 9.556407 -10.209780 2.957673 8.611059 4.018225 1.032170 -11.855305 -0.054755 -3.773104 35.746967 -1.885140 -3.013070 -6.381350 -11.393535 -11.928262 4.617767 -42.130984 -8.772775 -2.242395 -45.669355 -32.425524 10.882590 -3.643638 3.265630 0.238120 0.019350 0.021090 0.035840 2.992224 12.716361 9.316499 51.292983 6.333420 -3.189050 87.936185 51.871809 36.150178 2.425062 -1.977976 -0.074260 0.088070 -0.034690 -0.134320 
